<?xml version="1.0" encoding="iso-8859-1"?>
<!-- Generator: Adobe Illustrator 16.0.0, SVG Export Plug-In . SVG Version: 6.00 Build 0)  -->
<!DOCTYPE svg PUBLIC "-//W3C//DTD SVG 1.1//EN" "http://www.w3.org/Graphics/SVG/1.1/DTD/svg11.dtd">
<svg version="1.1" id="Capa_1" xmlns="http://www.w3.org/2000/svg" xmlns:xlink="http://www.w3.org/1999/xlink" x="0px" y="0px"
	 width="954px" height="954px" viewBox="0 0 954 954" style="enable-background:new 0 0 954 954;" xml:space="preserve">
<g>
	<path d="M48,227.983h269v-177c0-8.1,1.5-15.9,4.3-23H48c-26.5,0-48,21.5-48,48v104C0,206.483,21.5,227.983,48,227.983z"/>
	<path d="M863,227.983h43c26.5,0,48-21.5,48-48v-104c0-26.5-21.5-48-48-48h-47.3c2.8,7.1,4.3,14.9,4.3,23V227.983z"/>
	<path d="M48,464.483h269v-200H48c-26.5,0-48,21.5-48,48v104C0,442.983,21.5,464.483,48,464.483z"/>
	<path d="M954,312.483c0-26.5-21.5-48-48-48h-43v200h43c26.5,0,48-21.5,48-48V312.483z"/>
	<path d="M906,501.983h-43v200h43c26.5,0,48-21.5,48-48v-104C954,523.483,932.5,501.983,906,501.983z"/>
	<path d="M48,701.983h269v-200H48c-26.5,0-48,21.5-48,48v104C0,680.483,21.5,701.983,48,701.983z"/>
	<path d="M839,828.483v-126.5v-200v-37.5v-200v-36.5v-177c0-8.6-2.7-16.5-7.3-23c-7.2-10.3-19.2-17-32.7-17H381
		c-13.5,0-25.5,6.7-32.7,17c-4.6,6.5-7.3,14.4-7.3,23v177v36.5v200v37.5v197.2l10.8,2.8L839,828.483z"/>
	<path d="M839,880.083L341,750.883v50.6c0,13.7,9.3,25.7,22.6,29.1l438,111.5c19,4.801,37.4-9.5,37.4-29.1V880.083z"/>
</g>
<g>
</g>
<g>
</g>
<g>
</g>
<g>
</g>
<g>
</g>
<g>
</g>
<g>
</g>
<g>
</g>
<g>
</g>
<g>
</g>
<g>
</g>
<g>
</g>
<g>
</g>
<g>
</g>
<g>
</g>
</svg>
