<?xml version="1.0" encoding="iso-8859-1"?>
<!-- Generator: Adobe Illustrator 19.0.0, SVG Export Plug-In . SVG Version: 6.00 Build 0)  -->
<svg version="1.1" id="Capa_1" xmlns="http://www.w3.org/2000/svg" xmlns:xlink="http://www.w3.org/1999/xlink" x="0px" y="0px"
	 viewBox="0 0 512 512" style="enable-background:new 0 0 512 512;" xml:space="preserve">
<g>
	<g>
		<path d="M312.492,55.614c-15.316-5.048-35.377-7.829-56.488-7.829c-21.111,0-41.172,2.78-56.487,7.829
			c-26.442,8.717-31.992,22.037-31.992,31.677c0,9.639,5.55,22.959,31.992,31.676c15.316,5.048,35.377,7.829,56.487,7.829
			c21.112,0,41.172-2.78,56.487-7.829c26.443-8.717,31.993-22.037,31.993-31.676C344.484,77.651,338.934,64.331,312.492,55.614z
			 M256.004,95.952c-25.751,0-44.233-4.634-53.12-8.659c8.888-4.027,27.369-8.66,53.12-8.66c25.752,0,44.233,4.634,53.121,8.66
			C300.237,91.318,281.756,95.952,256.004,95.952z"/>
	</g>
</g>
<g>
	<g>
		<path d="M489.45,87.292C489.45,29.984,372.012,0,256.004,0S22.558,29.984,22.558,87.292h-0.01v337.416
			c0,0.249,0.006,0.497,0.019,0.744C23.577,482.275,140.499,512,256.005,512c116.009,0,233.447-29.984,233.447-87.292L489.45,87.292
			z M106.667,51.12c39.662-13.074,92.698-20.275,149.337-20.275s109.675,7.2,149.338,20.275
			c36.793,12.129,53.263,26.906,53.263,36.172c0,9.265-16.469,24.043-53.263,36.171c-39.663,13.074-92.699,20.275-149.338,20.275
			s-109.675-7.2-149.337-20.275c-36.793-12.129-53.264-26.907-53.264-36.172S69.874,63.25,106.667,51.12z M458.606,424.708
			c0,9.266-16.469,24.043-53.264,36.172c-39.662,13.074-92.699,20.275-149.338,20.275s-109.675-7.2-149.337-20.275
			c-36.794-12.129-53.264-26.906-53.264-36.172c0-0.196-0.004-0.393-0.011-0.588V132.966
			c42.496,27.457,122.891,41.617,202.612,41.617c79.715,0,160.104-14.158,202.602-41.61V424.708z"/>
	</g>
</g>
<g>
</g>
<g>
</g>
<g>
</g>
<g>
</g>
<g>
</g>
<g>
</g>
<g>
</g>
<g>
</g>
<g>
</g>
<g>
</g>
<g>
</g>
<g>
</g>
<g>
</g>
<g>
</g>
<g>
</g>
</svg>
